<svg width="86" height="85" viewBox="0 0 86 85" fill="none" xmlns="http://www.w3.org/2000/svg">
<path d="M86 85H0C0 56.6667 0 28.3333 0 0C28.6667 0 57.3333 0 86 0V85ZM83.0858 42.5254C83.113 20.6178 65.307 2.56884 43.156 2.50362C21.0811 2.43841 3.26598 20.1902 2.96858 41.9457C2.66393 64.3261 20.6948 82.3515 42.6482 82.5435C65.0513 82.7391 83.113 64.5706 83.084 42.5236L83.0858 42.5254Z" fill="white"/>
<path d="M83.0856 42.5254C83.1146 64.5725 65.0529 82.7409 42.6498 82.5453C20.6964 82.3533 2.66369 64.3279 2.97016 41.9475C3.26575 20.1902 21.0809 2.43841 43.1539 2.50362C65.3049 2.56884 83.111 20.6159 83.0838 42.5254H83.0856ZM43.0252 75.7808C61.4097 75.7446 76.0477 60.9402 76.3088 43.0362C76.579 24.567 61.7524 9.58152 43.6163 9.27717C25.0523 8.96558 9.96818 23.8569 9.74512 42.0978C9.51845 60.6141 24.5028 75.7554 43.0252 75.7808Z" fill="#100F0E"/>
<path d="M43.0253 75.7808C24.5011 75.7554 9.51676 60.6141 9.74525 42.0978C9.96831 23.8569 25.0524 8.96558 43.6165 9.27717C61.7526 9.58152 76.5791 24.567 76.3089 43.0362C76.0478 60.9402 61.4098 75.7464 43.0253 75.7808ZM60.1187 32.5598C60.0715 32.654 60.0407 32.7228 60.0026 32.7917C59.6254 33.4746 59.2446 34.1594 58.8674 34.8424C55.8353 40.317 52.8033 45.7898 49.7749 51.2663C49.5681 51.6395 49.2635 51.8279 48.8409 51.8225C48.4275 51.817 48.1337 51.6232 47.9342 51.2572C47.0547 49.6522 46.1698 48.0507 45.2866 46.4475C40.1456 37.1141 35.0027 27.7808 29.8616 18.4493C29.8253 18.3841 29.7854 18.3225 29.7365 18.2409C29.6585 18.3641 29.5968 18.462 29.5352 18.5598C26.5285 23.3551 23.4947 28.1341 20.5225 32.9493C18.2992 36.5489 18.0562 40.3297 19.808 44.1848C20.401 45.4909 21.1626 46.7246 21.859 47.9837C25.0071 53.6739 28.1606 59.3623 31.3105 65.0525C31.5789 65.538 31.8491 66.0235 32.1357 66.5398C34.9283 61.4982 37.7029 56.4891 40.4974 51.442C43.2973 56.4982 46.07 61.5036 48.8591 66.5398C56.2597 53.1775 63.6349 39.8587 71.0228 26.5181C70.9358 26.5127 70.8814 26.5054 70.8251 26.5054C65.2216 26.5054 59.6163 26.5054 54.0128 26.5018C53.8768 26.5018 53.8097 26.5507 53.7463 26.6649C52.689 28.5688 51.6264 30.4692 50.5655 32.3714C50.5365 32.4239 50.5147 32.4819 50.4785 32.5634H60.1205L60.1187 32.5598Z" fill="white"/>
<path d="M60.1188 32.5598H50.4768C50.5131 32.4783 50.5348 32.4203 50.5638 32.3678C51.6247 30.4656 52.6855 28.5652 53.7446 26.6612C53.8081 26.5471 53.877 26.4982 54.0112 26.4982C59.6146 26.5018 65.22 26.5018 70.8234 26.5018C70.8797 26.5018 70.9341 26.5091 71.0211 26.5145C63.6332 39.8551 56.258 53.1739 48.8574 66.5362C46.0683 61.5 43.2956 56.4928 40.4957 51.4384C37.7012 56.4837 34.9266 61.4946 32.134 66.5362C31.8474 66.0181 31.5772 65.5326 31.3089 65.0489C28.1571 59.3605 25.0054 53.6721 21.8573 47.9801C21.1609 46.721 20.3993 45.4891 19.8063 44.1812C18.0545 40.3261 18.2993 36.5453 20.5208 32.9457C23.4948 28.1304 26.5268 23.3515 29.5335 18.5562C29.5952 18.4583 29.6568 18.3605 29.7348 18.2373C29.7838 18.317 29.8237 18.3804 29.8599 18.4457C35.001 27.779 40.1439 37.1105 45.2849 46.4438C46.1681 48.0471 47.053 49.6486 47.9325 51.2536C48.132 51.6178 48.4258 51.8134 48.8393 51.8188C49.2618 51.8243 49.5664 51.6359 49.7732 51.2627C52.8016 45.788 55.8336 40.3134 58.8657 34.8388C59.2447 34.1558 59.6237 33.4728 60.0009 32.788C60.0372 32.721 60.0698 32.6504 60.117 32.5562L60.1188 32.5598ZM31.521 53.7645C31.5555 53.7138 31.5736 53.692 31.5863 53.6667C32.6689 51.721 33.7352 49.7645 34.8414 47.8315C35.3891 46.875 35.7227 45.8696 35.7717 44.7736C35.8152 43.8207 35.701 42.8967 35.2277 42.0435C33.1567 38.3043 31.0894 34.5634 29.0185 30.8243C28.9822 30.7591 28.9423 30.6975 28.8934 30.6178C28.8426 30.6975 28.8063 30.75 28.7737 30.8062C27.905 32.2772 27.0527 33.7554 26.166 35.2138C25.2339 36.75 24.815 38.413 24.8603 40.1975C24.8839 41.1486 25.0616 42.0634 25.5276 42.9094C26.9693 45.5181 28.4056 48.1268 29.8454 50.7355C30.3967 51.7355 30.9498 52.7355 31.5174 53.7627L31.521 53.7645Z" fill="#100F0E"/>
<path d="M31.521 53.7645C30.9534 52.7373 30.4003 51.7373 29.849 50.7373C28.4092 48.1286 26.9729 45.5181 25.5313 42.9112C25.0652 42.067 24.8875 41.1504 24.8639 40.1993C24.8204 38.4148 25.2375 36.7518 26.1696 35.2156C27.0564 33.7572 27.9087 32.2772 28.7773 30.808C28.8099 30.7518 28.8462 30.6993 28.897 30.6196C28.9459 30.6993 28.9858 30.7609 29.0221 30.8261C31.0912 34.5652 33.1603 38.3062 35.2313 42.0453C35.7046 42.8985 35.817 43.8225 35.7753 44.7754C35.7245 45.8732 35.3927 46.8768 34.845 47.8333C33.7388 49.7663 32.6725 51.7228 31.5899 53.6685C31.5772 53.692 31.5591 53.7138 31.5246 53.7663L31.521 53.7645Z" fill="white"/>
</svg>
